# xmcd
#
# Track frame offsets:
#	150
#	17327
#	31730
#	50052
#	62385
#	84647
#	112452
#	138247
#	158992
#
# Disc length: 2301 seconds
#
# Revision: 0
# Processed by: cddbd v1.5.1PL0 Copyright (c) Steve Scherf et al.
# Submitted via: dBpowerAMP V4.0
#
DISCID=7008fb09
DTITLE=Loop Memphis - A Blue Loop Christmas
DYEAR=2003
DGENRE=Blues
TTITLE0=Blue Christmas
TTITLE1=Respect
TTITLE2=Joy to the World
TTITLE3=O Come All Ye Faithful
TTITLE4=Angels We Have Heard on High
TTITLE5=O Holy Night
TTITLE6=O Praise Him
TTITLE7=Joy to the World
TTITLE8=Silent Night
EXTD=
EXTT0=
EXTT1=
EXTT2=
EXTT3=
EXTT4=
EXTT5=
EXTT6=
EXTT7=
EXTT8=
PLAYORDER=
